<svg width="40" height="45" viewBox="0 0 40 45" fill="none" xmlns="http://www.w3.org/2000/svg">
<g clip-path="url(#clip0_4_8)">
<path d="M20.0156 9.59546C14.3371 9.59546 9.7567 14.1042 9.7567 19.6941C9.7567 25.2839 14.3371 29.7927 20.0156 29.7927C25.6942 29.7927 30.2746 25.2839 30.2746 19.6941C30.2746 14.1042 25.6942 9.59546 20.0156 9.59546ZM20.0156 26.2595C16.346 26.2595 13.346 23.3152 13.346 19.6941C13.346 16.073 16.3371 13.1287 20.0156 13.1287C23.6942 13.1287 26.6853 16.073 26.6853 19.6941C26.6853 23.3152 23.6853 26.2595 20.0156 26.2595ZM33.0871 9.18237C33.0871 10.4919 32.0156 11.5378 30.6942 11.5378C29.3638 11.5378 28.3013 10.4832 28.3013 9.18237C28.3013 7.88159 29.3728 6.8269 30.6942 6.8269C32.0156 6.8269 33.0871 7.88159 33.0871 9.18237ZM39.8817 11.573C39.7299 8.41772 38.9978 5.6228 36.6496 3.32007C34.3103 1.01733 31.471 0.296631 28.2656 0.138428C24.9621 -0.0461426 15.0603 -0.0461426 11.7567 0.138428C8.56027 0.287842 5.72098 1.00854 3.37277 3.31128C1.02455 5.61401 0.301339 8.40893 0.140625 11.5642C-0.046875 14.8162 -0.046875 24.5632 0.140625 27.8152C0.292411 30.9705 1.02455 33.7654 3.37277 36.0681C5.72098 38.3708 8.55134 39.0915 11.7567 39.2497C15.0603 39.4343 24.9621 39.4343 28.2656 39.2497C31.471 39.1003 34.3103 38.3796 36.6496 36.0681C38.9888 33.7654 39.721 30.9705 39.8817 27.8152C40.0692 24.5632 40.0692 14.8249 39.8817 11.573ZM35.6138 31.3044C34.9174 33.0271 33.5692 34.3542 31.8103 35.0486C29.1763 36.0769 22.9263 35.8396 20.0156 35.8396C17.1049 35.8396 10.846 36.0681 8.22098 35.0486C6.47098 34.363 5.12277 33.0359 4.41741 31.3044C3.37277 28.7117 3.61384 22.5593 3.61384 19.6941C3.61384 16.8289 3.3817 10.6677 4.41741 8.08374C5.11384 6.36108 6.46205 5.03393 8.22098 4.3396C10.8549 3.31128 17.1049 3.54858 20.0156 3.54858C22.9263 3.54858 29.1853 3.32007 31.8103 4.3396C33.5603 5.02515 34.9085 6.35229 35.6138 8.08374C36.6585 10.6765 36.4174 16.8289 36.4174 19.6941C36.4174 22.5593 36.6585 28.7205 35.6138 31.3044Z" fill="white"/>
</g>
<defs>
<clipPath id="clip0_4_8">
<rect width="40" height="45" fill="white"/>
</clipPath>
</defs>
</svg>
