<svg width="40" height="40" viewBox="0 0 40 40" fill="none" xmlns="http://www.w3.org/2000/svg">
<path d="M35.8883 12.2631C35.9137 12.6184 35.9137 12.9738 35.9137 13.3291C35.9137 24.1666 27.665 36.6539 12.5888 36.6539C7.94414 36.6539 3.62945 35.3087 0 32.9738C0.659922 33.0499 1.29437 33.0753 1.97969 33.0753C5.81211 33.0753 9.34008 31.7809 12.1573 29.5728C8.55328 29.4966 5.53297 27.1362 4.49234 23.8874C5 23.9635 5.50758 24.0143 6.04062 24.0143C6.77664 24.0143 7.51273 23.9128 8.19797 23.7352C4.44164 22.9737 1.6243 19.6742 1.6243 15.6895V15.588C2.71562 16.1971 3.98477 16.5778 5.32984 16.6285C3.12172 15.1564 1.67508 12.6438 1.67508 9.80112C1.67508 8.27831 2.08109 6.88237 2.7918 5.66409C6.82734 10.6387 12.8934 13.8874 19.6953 14.2428C19.5684 13.6336 19.4923 12.9992 19.4923 12.3646C19.4923 7.84683 23.1471 4.16667 27.6902 4.16667C30.0506 4.16667 32.1826 5.15652 33.6801 6.7555C35.5328 6.40019 37.3095 5.71487 38.8831 4.77581C38.2739 6.67941 36.9795 8.27839 35.2791 9.29355C36.9288 9.11597 38.5278 8.65901 39.9998 8.02456C38.8833 9.64886 37.4873 11.0955 35.8883 12.2631Z" fill="white"/>
</svg>
